# xmcd
#
# Track frame offsets: 
#        150
#        15772
#        29615
#        44407
#        57991
#        70433
#        85592
#        98957
#        113444
#        128383
#        143262
#        152851
#        162516
#        178590
#        189392
#        202521
#        213977
#        227733
#        240664
#
# Disc length: 3374 seconds
#
# Revision: 2
# Processed by: cddbd v1.5.1PL0 Copyright (c) Steve Scherf et al.
# Submitted via: ExactAudioCopy v0.90b4
#
DISCID=ea0d2c13
DTITLE=Muddy Waters - The Complete Recordings 1941-1948 [CD1]
DYEAR=2000
DGENRE=Blues
TTITLE0=Country Blues
TTITLE1=I Be's Troubled
TTITLE2=Ramblin' Kid Blues
TTITLE3=Rosalie
TTITLE4=Joe Turner Blues
TTITLE5=Pearlie May Blues
TTITLE6=Take A Walk With Me
TTITLE7=Burr Clover Blues
TTITLE8=I Be Bound To Write You
TTITLE9=You Gonna Miss Me When I'm Gone
TTITLE10=You Got To Take Sick And Die Some Of These Days
TTITLE11=Why Don't You Live So God Can Use You
TTITLE12=Country Blues No.2
TTITLE13=Mean Red Spider
TTITLE14=I'm Gonna Cut Your Head
TTITLE15=Atomic Bomb Blues
TTITLE16=Tomorrow Will Be Too Late
TTITLE17=Jitterbug Blues
TTITLE18=Hard Day Blues
EXTD=Released January, 2000\nCulture Press 991016
EXTT0=
EXTT1=
EXTT2=
EXTT3=
EXTT4=
EXTT5=
EXTT6=
EXTT7=
EXTT8=
EXTT9=
EXTT10=
EXTT11=
EXTT12=
EXTT13=
EXTT14=
EXTT15=
EXTT16=
EXTT17=
EXTT18=
PLAYORDER=
